<svg xmlns="http://www.w3.org/2000/svg" width="129" height="19" viewBox="0 0 129 19" fill="none">
  <g clip-path="url(#clip0_118_2)">
    <path d="M29.846 5.86865L32.2775 12.5115L34.4689 5.86865H39.4163V18.6908H36.0099L36.0959 10.6577L35.8493 10.5047L33.3984 18.6754L31.0561 18.7016L27.979 10.5032L27.7228 12.2813L27.8996 18.6908H24.8176V5.86865H29.846Z" fill="#333333"/>
    <path d="M87.5107 5.71437C88.5115 5.84259 89.9552 6.66136 90.5943 7.41215C91.9925 9.05895 90.7711 11.2001 89.0549 12.1255C89.9016 12.5657 90.7922 12.9056 91.1441 13.8418C91.6145 15.0931 91.4053 17.1555 90.1758 17.9866C89.6535 18.3404 87.4604 19.0015 86.8619 19.0015H79.887L79.6356 18.4686L79.8059 5.71591C82.2049 5.93837 85.1847 5.41776 87.5107 5.71591V5.71437ZM86.5375 8.3406C85.8773 8.16449 84.4596 8.47036 83.6988 8.3406V10.8123H86.2131C86.5699 10.8123 87.2041 10.1774 87.2641 9.79584C87.3355 9.34474 86.9754 8.45801 86.5375 8.3406ZM86.5375 13.7475C85.7199 13.6116 84.5618 13.848 83.6988 13.7475V16.2193H86.6997C86.7402 16.2193 87.2479 15.8238 87.3242 15.7172C87.887 14.9355 87.5269 13.9128 86.5375 13.7475Z" fill="#333333"/>
    <path d="M111.274 5.86865V10.2714L111.517 10.4692C111.584 10.4738 111.639 10.3487 111.68 10.3487H114.761C114.81 10.3487 114.886 10.5449 115.005 10.5032V6.25486C115.005 6.20388 115.219 6.02005 115.167 5.86865H118.654L118.898 6.10038V18.8453H115.005V13.5929H111.274V18.8453H107.543V5.86865H111.274Z" fill="#333333"/>
    <path d="M106.408 6.48988L105.005 8.94618C104.609 9.05586 103.679 8.31434 103.209 8.22165C102.349 8.05171 100.836 8.10269 100.735 9.20108C100.625 10.4122 102.825 10.3582 103.655 10.576C106.257 11.2573 107.853 13.1203 106.974 15.7543C105.756 19.4078 100.447 19.482 97.3761 18.1009C96.99 17.9279 95.9568 17.4289 96.0898 16.9886C96.2763 16.3707 97.3372 15.4144 97.4896 14.676L97.7216 14.6806C98.6397 15.691 101.79 16.7847 102.658 15.3511C103.811 13.4448 100.179 13.2748 99.1101 12.8963C94.4239 11.2372 96.6186 5.83487 100.975 5.40695C102.93 5.21538 104.653 5.76844 106.408 6.48833V6.48988Z" fill="#333333"/>
    <path d="M65.3678 8.9584C64.8001 8.90897 64.401 8.46096 63.8804 8.29103C62.946 7.9867 60.9623 7.75497 60.9769 9.19322C60.9898 10.3549 63.0353 10.2731 63.8528 10.4785C65.4375 10.8786 67.0596 11.8534 67.3013 13.528C68.1496 19.3907 60.0263 19.9839 56.3085 17.2743L57.59 14.6789C58.2972 14.7454 58.7725 15.2969 59.4862 15.5626C60.6362 15.9905 62.9104 16.3257 63.0109 14.6929C63.1115 13.06 59.9939 13.1372 58.8406 12.6228C56.7481 11.6897 56.1901 9.66903 57.1699 7.7148C58.6281 4.80587 64.0701 4.73635 66.4903 6.5778L65.3645 8.95686L65.3678 8.9584Z" fill="#333333"/>
    <path d="M75.9129 5.86865H78.9948V14.906C78.9948 15.0574 78.3103 16.5126 78.1562 16.7335C75.9242 19.9422 70.1367 19.7444 68.4757 16.1187C68.341 15.8252 67.9647 14.8395 67.9647 14.597V5.86865H71.6144L71.8577 6.10038V14.7515C71.8577 14.9137 72.4108 15.7618 72.586 15.9117C73.6987 16.8679 75.097 16.0801 75.6258 14.9415C75.8837 11.9229 75.9518 8.89654 75.9129 5.86865Z" fill="#333333"/>
    <path d="M56.2859 5.86865V8.3404H52.7173V18.8453H48.9865V8.3404H45.0936V5.86865H56.2859Z" fill="#333333"/>
    <path d="M19.5459 12.3574L23.52 18.5368L15.8362 18.6496L15.408 18.3051L11.8411 12.3574H19.5459Z" fill="#333333"/>
    <path d="M44.2825 5.86865H40.5518V18.8453H44.2825V5.86865Z" fill="#333333"/>
    <path d="M95.54 5.86865H91.8092V18.8453H95.54V5.86865Z" fill="#333333"/>
    <path d="M123.764 5.86865H120.033V18.8453H123.764V5.86865Z" fill="#333333"/>
    <path d="M11.5167 12.3574C10.1801 14.4368 8.75431 16.5192 7.62373 18.6913H0L3.97407 12.3574H11.5167Z" fill="#333333"/>
    <path d="M11.8378 0L15.5621 5.63713L11.5183 12.0482L7.96106 5.79161L11.5037 0.0957802L11.8378 0Z" fill="#333333"/>
    <path d="M129 7.58525C129 8.61411 128.124 9.44832 127.044 9.44832C125.963 9.44832 125.088 8.61411 125.088 7.58525C125.088 6.55638 125.963 5.72217 127.044 5.72217C128.124 5.72217 129 6.55638 129 7.58525ZM126.08 8.91381C127.573 10.0338 129.691 7.78453 128.134 6.41889C126.577 5.05325 124.223 7.52036 126.08 8.91381Z" fill="#333333"/>
    <path d="M126.359 6.48677C126.985 6.43425 128.131 6.42807 127.899 7.27773C127.746 7.83387 127.159 7.81225 127.981 8.648C127.058 8.84883 127.553 7.26228 126.52 7.81225L126.361 8.64955V6.48677H126.359ZM126.521 7.41368C128.041 7.58361 128.035 6.62581 126.521 6.79728V7.41368Z" fill="#333333"/>
  </g>
  <defs>
    <clipPath id="clip0_118_2">
      <rect width="129" height="19" fill="white"/>
    </clipPath>
  </defs>
</svg>
