<svg width="47" height="38" viewBox="0 0 47 38" fill="none" xmlns="http://www.w3.org/2000/svg">
<path d="M11.62 37.18C9.47333 37.18 7.7 36.76 6.3 35.92C4.9 35.08 3.73333 33.96 2.8 32.56C1.86667 31.0667 1.16667 29.3867 0.7 27.52C0.326667 25.6533 0.14 23.9733 0.14 22.48C0.14 17.9067 1.30667 13.7067 3.64 9.87999C6.06667 6.05333 9.75333 2.97333 14.7 0.639995L15.96 3.16C13.16 4.37333 10.7333 6.24 8.68 8.76C6.62667 11.28 5.50667 13.8467 5.32 16.46C5.13333 17.86 5.22667 19.1667 5.6 20.38C7.28 18.7933 9.33333 18 11.76 18C14.4667 18 16.7533 18.8867 18.62 20.66C20.4867 22.34 21.42 24.6733 21.42 27.66C21.42 30.46 20.44 32.7467 18.48 34.52C16.6133 36.2933 14.3267 37.18 11.62 37.18ZM37.1 37.18C34.9533 37.18 33.18 36.76 31.78 35.92C30.38 35.08 29.2133 33.96 28.28 32.56C27.3467 31.0667 26.6467 29.3867 26.18 27.52C25.8067 25.6533 25.62 23.9733 25.62 22.48C25.62 17.9067 26.7867 13.7067 29.12 9.87999C31.5467 6.05333 35.2333 2.97333 40.18 0.639995L41.44 3.16C38.64 4.37333 36.2133 6.24 34.16 8.76C32.1067 11.28 30.9867 13.8467 30.8 16.46C30.6133 17.86 30.7067 19.1667 31.08 20.38C32.76 18.7933 34.8133 18 37.24 18C39.9467 18 42.2333 18.8867 44.1 20.66C45.9667 22.34 46.9 24.6733 46.9 27.66C46.9 30.46 45.92 32.7467 43.96 34.52C42.0933 36.2933 39.8067 37.18 37.1 37.18Z" fill="#EE4823"/>
</svg>
